<?xml version="1.0" encoding="utf-8"?>
<!-- Generator: Adobe Illustrator 18.1.1, SVG Export Plug-In . SVG Version: 6.00 Build 0)  -->
<svg version="1.1" id="Layer_1" xmlns="http://www.w3.org/2000/svg" xmlns:xlink="http://www.w3.org/1999/xlink" x="0px" y="0px"
	 viewBox="0 0 182.5 163.2" enable-background="new 0 0 182.5 163.2" xml:space="preserve">
<g id="weatherCondition">
	<g>
		<path fill="#333333" d="M91.9,51.3c-17.6,0-32,14.4-32,32c0,17.6,14.4,32,32,32c17.6,0,32-14.4,32-32
			C123.9,65.6,109.6,51.3,91.9,51.3z M91.9,111.3c-15.4,0-28-12.6-28-28c0-15.4,12.6-28,28-28c15.4,0,28,12.6,28,28
			C119.9,98.7,107.4,111.3,91.9,111.3z M90.6,41.3c1.1,0,2-0.9,2-2v-16c0-1.1-0.9-2-2-2c-1.1,0-2,0.9-2,2v16
			C88.6,40.4,89.5,41.3,90.6,41.3z M90.6,125.3c-1.1,0-2,0.9-2,2v16c0,1.1,0.9,2,2,2c1.1,0,2-0.9,2-2v-16
			C92.6,126.2,91.7,125.3,90.6,125.3z M50.6,85.3c0-1.1-0.9-2-2-2h-16c-1.1,0-2,0.9-2,2c0,1.1,0.9,2,2,2h16
			C49.7,87.3,50.6,86.4,50.6,85.3z M152.6,83.3h-16c-1.1,0-2,0.9-2,2c0,1.1,0.9,2,2,2h16c1.1,0,2-0.9,2-2
			C154.6,84.2,153.7,83.3,152.6,83.3z M60.1,113l-11.3,11.3c-0.8,0.8-0.8,2,0,2.8c0.4,0.4,0.9,0.6,1.4,0.6s1-0.2,1.4-0.6l11.3-11.3
			c0.8-0.8,0.8-2,0-2.8C62.1,112.2,60.9,112.2,60.1,113z M123.7,54.2c0.5,0,1-0.2,1.4-0.6l11.3-11.3c0.8-0.8,0.8-2,0-2.8
			c-0.8-0.8-2-0.8-2.8,0l-11.3,11.3c-0.8,0.8-0.8,2,0,2.8C122.7,54,123.2,54.2,123.7,54.2z M125.1,113c-0.8-0.8-2-0.8-2.8,0
			c-0.8,0.8-0.8,2,0,2.8l11.3,11.3c0.4,0.4,0.9,0.6,1.4,0.6c0.5,0,1-0.2,1.4-0.6c0.8-0.8,0.8-2,0-2.8L125.1,113z M60.1,53.6
			c0.4,0.4,0.9,0.6,1.4,0.6s1-0.2,1.4-0.6c0.8-0.8,0.8-2,0-2.8L51.6,39.4c-0.8-0.8-2-0.8-2.8,0c-0.8,0.8-0.8,2,0,2.8L60.1,53.6z"/>
	</g>
</g>
</svg>
