<?xml version="1.0" encoding="utf-8"?>
<!-- Generator: Adobe Illustrator 18.1.1, SVG Export Plug-In . SVG Version: 6.00 Build 0)  -->
<svg version="1.1" id="Layer_1" xmlns="http://www.w3.org/2000/svg" xmlns:xlink="http://www.w3.org/1999/xlink" x="0px" y="0px"
	 viewBox="0 0 182.5 163.2" enable-background="new 0 0 182.5 163.2" xml:space="preserve">
<g id="_x31_6">
	<g>
		<path fill="#333333" d="M51.4,71c-0.4,1,0.1,2.2,1.1,2.7c0.2,0.1,0.5,0.1,0.7,0.1c0.8,0,1.5-0.5,1.9-1.3c4.3-10.9,14.5-18,26-18
			c1.1,0,2-0.9,2-2c0-1.1-0.9-2-2-2C68,50.5,56.3,58.5,51.4,71z M44.5,61.4c0.2,0.1,0.5,0.1,0.7,0.1c0.8,0,1.5-0.5,1.9-1.3
			c4.3-10.9,14.5-18,26-18c1.1,0,2-0.9,2-2c0-1.1-0.9-2-2-2c-13.2,0-24.9,8.1-29.7,20.6C43,59.8,43.5,61,44.5,61.4z M145,82.1
			c0-9-6.8-16.5-15.7-17.2c-2.1-7.2-8.7-12.3-16.3-12.3c-7.8,0-14.5,5.5-16.3,13.1c-1.8-0.5-3.7-0.8-5.7-0.8
			c-10.3,0-19.1,7.3-21.3,17.4c-2.2-0.7-4.4-1.1-6.7-1.1c-11.7,0-22,11.4-22,24.5c0,13,10.3,24.5,22,24.5h48c11.7,0,22-11.4,22-24.5
			c0-2.3-0.3-4.6-0.9-6.8C139.5,96.9,145,90.1,145,82.1z M111,126H63c-10.3,0-18-10.8-18-20.4c0-9.6,7.7-20.4,18-20.4
			c2.5,0,5,0.6,7.4,1.7c0.6,0.3,1.3,0.2,1.8-0.1c0.6-0.3,0.9-0.9,1-1.5c1-9.3,8.7-16.4,17.8-16.4c8.5,0,16,6.2,17.6,14.7
			c0.2,1,1,1.6,2,1.6c0.1,0,0.3,0,0.3,0c10.3,0,18,10.8,18,20.4C129,115.2,121.3,126,111,126z M130.6,95
			c-3.5-7.7-10.6-13.3-18.5-13.8c-1.7-6.3-6.1-11.4-11.7-14.1c1.3-6,6.4-10.4,12.6-10.4c6.2,0,11.5,4.5,12.7,10.6
			c0.2,1,1.3,1.5,2.3,1.6c7.2,0,13,6,13,13.3C141,88.3,136.6,93.7,130.6,95z"/>
	</g>
</g>
</svg>
