<?xml version="1.0" encoding="utf-8"?>
<!-- Generator: Adobe Illustrator 18.1.1, SVG Export Plug-In . SVG Version: 6.00 Build 0)  -->
<svg version="1.1" id="Layer_1" xmlns="http://www.w3.org/2000/svg" xmlns:xlink="http://www.w3.org/1999/xlink" x="0px" y="0px"
	 viewBox="0 0 120.7 112" enable-background="new 0 0 120.7 112" xml:space="preserve">
<g id="_x32_4">
	<g>
		<path fill="#333333" d="M43.2,82.4c-1.1,0-2,0.9-2,2v16.2c0,1.1,0.9,2,2,2c1.1,0,2-0.9,2-2V84.5C45.2,83.3,44.3,82.4,43.2,82.4z
			 M67.2,82.4c-1.1,0-2,0.9-2,2v16.2c0,1.1,0.9,2,2,2s2-0.9,2-2V84.5C69.2,83.3,68.3,82.4,67.2,82.4z M55.2,82.4c-1.1,0-2,0.9-2,2
			v8.1c0,1.1,0.9,2,2,2c1.1,0,2-0.9,2-2v-8.1C57.2,83.3,56.3,82.4,55.2,82.4z M79.2,82.4c-1.1,0-2,0.9-2,2v8.1c0,1.1,0.9,2,2,2
			c1.1,0,2-0.9,2-2v-8.1C81.2,83.3,80.3,82.4,79.2,82.4z M85.7,29.5C83,20,74.4,13.3,64.5,13.3c-10.3,0-19.1,7.3-21.3,17.2
			c-2.2-0.7-4.4-1.1-6.7-1.1c-11.9,0-22,10.7-22,23.5c0,12.7,10.1,23.5,22,23.5h48c11.9,0,22-10.7,22-23.5
			C106.5,40.6,97.1,30.2,85.7,29.5z M84.5,72.3h-48c-9.6,0-18-9.1-18-19.4c0-10.3,8.4-19.4,18-19.4c2.5,0,5,0.6,7.4,1.6
			c0.6,0.3,1.3,0.2,1.8-0.1c0.6-0.3,0.9-0.9,1-1.5c1-9.2,8.7-16.2,17.8-16.2c8.5,0,16,6.1,17.6,14.6c0.2,1,1,1.6,2,1.6
			c0.1,0,0.3,0,0.3,0c9.6,0,18,9.1,18,19.4C102.5,63.3,94.1,72.3,84.5,72.3z"/>
	</g>
</g>
</svg>
